<svg width="56" height="52" viewBox="0 0 56 52" fill="none" xmlns="http://www.w3.org/2000/svg">
<path d="M23.3652 46.6842L23.3674 46.6862L26.317 49.3714C27.271 50.2398 28.729 50.2398 29.683 49.3714L32.6326 46.6862L32.6348 46.6842L32.6432 46.6766C39.0466 40.87 44.4832 35.9401 48.302 31.268C52.1394 26.5732 54.5 21.9556 54.5 16.75C54.5 8.19479 47.7766 1.5 39.25 1.5C35.0193 1.5 30.9578 3.2286 28 6.02861C25.0422 3.2286 20.9807 1.5 16.75 1.5C8.22336 1.5 1.5 8.19479 1.5 16.75C1.5 21.9556 3.86056 26.5732 7.69798 31.268C11.5168 35.9401 16.9534 40.87 23.3568 46.6766L23.3652 46.6842Z" fill="#2D313B" stroke="#F9FAF5" stroke-width="3"/>
<circle cx="39.5385" cy="37.6154" r="11.5385" fill="#FF6E6B"/>
<path d="M40.9808 31.8462H38.0962V36.1731H33.7693V39.0577H38.0962V43.3846H40.9808V39.0577H45.3077V36.1731H40.9808V31.8462Z" fill="#F9FAF5"/>
</svg>
