<svg width="26" height="24" viewBox="0 0 26 24" fill="none" xmlns="http://www.w3.org/2000/svg">
<path d="M13.6732 23.2422C13.2916 23.5895 12.7084 23.5895 12.3268 23.2422L11.115 22.139C4.42 16.068 0 12.051 0 7.15C0 3.133 3.146 0 7.15 0C9.412 0 11.583 1.053 13 2.704C14.417 1.053 16.588 0 18.85 0C22.854 0 26 3.133 26 7.15C26 12.051 21.58 16.068 14.885 22.139L13.6732 23.2422Z" fill="#2D313B"/>
<circle cx="19" cy="18" r="6" fill="#FF6E6B"/>
<path d="M19.75 15H18.25V17.25H16V18.75H18.25V21H19.75V18.75H22V17.25H19.75V15Z" fill="#F9FAF5"/>
</svg>
